<?xml version="1.0" standalone="no"?>
<!DOCTYPE svg PUBLIC "-//W3C//DTD SVG 20010904//EN"
 "http://www.w3.org/TR/2001/REC-SVG-20010904/DTD/svg10.dtd">
<svg version="1.0" xmlns="http://www.w3.org/2000/svg"
 width="126.000000pt" height="126.000000pt" viewBox="0 0 126.000000 126.000000"
 preserveAspectRatio="xMidYMid meet">
<metadata>
Created by potrace 1.11, written by Peter Selinger 2001-2013
</metadata>
<g transform="translate(0.000000,126.000000) scale(0.100000,-0.100000)"
fill="#000000" stroke="none">
<path d="M545 1126 c-16 -8 -46 -26 -65 -41 l-35 -27 70 5 c39 2 77 1 85 -3 8
-4 42 -20 75 -35 94 -42 93 -41 105 -145 19 -165 -5 -220 -115 -269 -76 -34
-86 -35 -92 -13 -5 21 -5 21 -45 0 l-41 -22 -23 27 c-27 31 -36 33 -68 11 -23
-14 -25 -14 -30 4 -4 11 -14 19 -24 18 -11 -1 -25 15 -39 44 -17 33 -23 38
-23 22 0 -53 91 -200 144 -234 44 -27 135 -20 265 21 110 36 141 56 141 96 0
29 25 34 32 7 3 -10 22 -26 42 -36 21 -10 35 -23 33 -29 -3 -11 -70 -35 -272
-98 -77 -25 -229 -36 -321 -24 -44 5 -57 11 -61 26 -3 10 -12 19 -21 19 -28 0
-176 -78 -220 -115 l-42 -37 0 -149 0 -149 172 0 171 0 55 61 c63 70 150 130
312 218 l115 62 33 -17 c71 -38 103 -91 101 -169 0 -29 -21 -51 -132 -137 -21
-17 -12 -18 206 -18 l227 0 0 140 c0 77 -2 140 -4 140 -3 0 -44 -16 -92 -35
-47 -19 -90 -33 -94 -30 -4 3 -11 25 -14 50 -8 49 -45 101 -83 116 -32 12 -24
22 34 44 75 28 82 37 36 50 -21 6 -36 13 -33 15 2 3 -3 16 -13 30 -23 34 -22
49 5 42 14 -3 19 -1 14 6 -4 6 -23 14 -44 17 -58 10 -82 23 -82 45 0 11 -4 20
-9 20 -16 0 -18 33 -4 67 17 43 16 49 -4 31 -44 -37 -50 -31 -47 44 4 76 9 92
29 84 8 -3 16 5 19 20 20 77 -71 208 -161 233 -52 15 -132 13 -168 -3z m292
-466 c1 -11 -2 -20 -8 -20 -5 0 -9 9 -9 20 0 11 4 20 8 20 4 0 8 -9 9 -20z
m-209 -365 c7 -6 -56 -14 -162 -19 -87 -5 -97 -3 -79 9 27 19 224 27 241 10z
m-298 -20 c-14 -8 -33 -14 -44 -15 -15 0 -16 3 -6 15 7 8 27 15 44 15 l31 -1
-25 -14z"/>
<path d="M585 998 c-12 -18 -13 -25 -3 -31 136 -81 158 -90 158 -63 0 17 -108
116 -126 116 -7 0 -20 -10 -29 -22z"/>
<path d="M424 986 c-29 -13 -64 -50 -64 -69 0 -4 9 -3 19 3 11 5 30 10 43 10
30 0 48 17 48 47 0 26 -4 27 -46 9z"/>
<path d="M430 870 c0 -5 4 -10 9 -10 6 0 13 5 16 10 3 6 -1 10 -9 10 -9 0 -16
-4 -16 -10z"/>
<path d="M640 850 c0 -5 11 -10 24 -10 14 0 28 5 31 10 4 6 -7 10 -24 10 -17
0 -31 -4 -31 -10z"/>
<path d="M435 763 c-33 -17 -65 -43 -65 -52 0 -3 31 -7 69 -8 45 -1 82 -8 110
-21 l42 -21 -3 26 c-2 20 -15 33 -48 50 -25 13 -49 28 -54 33 -12 12 -13 12
-51 -7z"/>
<path d="M430 676 c0 -8 4 -17 9 -20 11 -7 33 18 24 27 -12 12 -33 7 -33 -7z"/>
<path d="M632 148 c-16 -21 -24 -58 -13 -58 9 0 41 50 41 65 0 10 -17 5 -28
-7z"/>
<path d="M751 132 c-18 -34 -13 -44 11 -22 16 15 19 23 11 31 -8 8 -14 6 -22
-9z"/>
<path d="M681 121 c-8 -14 -7 -20 3 -24 13 -5 26 12 26 34 0 16 -19 10 -29
-10z"/>
<path d="M709 44 c-5 -15 -12 -31 -15 -35 -3 -5 1 -9 9 -9 13 0 37 39 37 60 0
20 -21 9 -31 -16z"/>
<path d="M640 31 c-13 -26 -13 -31 4 -31 13 0 26 20 26 41 0 16 -19 10 -30
-10z"/>
<path d="M580 24 c0 -17 22 -14 28 4 2 7 -3 12 -12 12 -9 0 -16 -7 -16 -16z"/>
</g>
</svg>
